<svg height="11" width="6" xmlns="http://www.w3.org/2000/svg"><g transform="translate(0 -1041.3622)"><!-- Traffic light body --><rect height="11" ry="2" width="6" y="1041.3622" fill="#222"/><!-- Lights (turned off / gray) --><g stroke-width=".2"><!-- Top light --><path d="m640 709.36218c0 1.10457-.89543 2-2 2s-2-.89543-2-2 .89543-2 2-2 2 .89543 2 2z" fill="#777" stroke="#555" transform="matrix(1.0952381 0 0 1.0952381 -695.76191 267.44175)" /><!-- Bottom light --><path d="m640 719.36218c0 1.10457-.89543 2-2 2s-2-.89543-2-2 .89543-2 2-2 2 .89543 2 2z" fill="#777" stroke="#555" transform="matrix(1.0952381 0 0 1.0952381 -695.7619 261.48938)" /></g><!-- Red cross (no traffic light) --><line x1="0.8" y1="1042.2" x2="5.2" y2="1051.2" stroke="#d00" stroke-width="0.8" stroke-linecap="round"/><line x1="5.2" y1="1042.2" x2="0.8" y2="1051.2" stroke="#d00" stroke-width="0.8" stroke-linecap="round"/></g></svg>
